<svg width="300" height="300" viewBox="0 0 300 300" fill="none" xmlns="http://www.w3.org/2000/svg">
<g opacity="0.4">
<path d="M36.9364 214.999H44.3751V219.999C44.3751 230.905 44.394 237.615 44.8049 242.644C45.1882 247.335 45.7912 248.432 45.806 248.458C47.0642 250.927 49.0721 252.935 51.5412 254.193C51.5412 254.193 52.608 254.806 57.355 255.194C62.3846 255.605 69.0942 255.624 79.9999 255.624H84.9998V263.063C84.9998 265.251 85.0021 267.353 85.0027 269.374H79.9999L72.5884 269.365C66.3149 269.343 61.407 269.264 57.3278 268.981L56.2355 268.899C50.9924 268.47 47.959 267.702 45.7342 266.657L45.2996 266.444C40.4011 263.948 36.3894 260.012 33.8011 255.171L33.5547 254.7C32.473 252.576 31.6639 249.738 31.1906 244.783L31.1003 243.764C30.7499 239.473 30.6579 234.254 30.6337 227.411L30.625 219.999V214.996C32.6465 214.997 34.7485 214.999 36.9364 214.999Z" fill="white" style="fill:white;fill-opacity:1;"/>
<path d="M269.375 219.999L269.366 227.411C269.342 234.254 269.25 239.473 268.9 243.764L268.81 244.783C268.336 249.738 267.527 252.576 266.445 254.7L266.199 255.171C263.611 260.012 259.6 263.948 254.701 266.444L254.267 266.657C252.042 267.702 249.009 268.47 243.765 268.899L242.672 268.981C238.593 269.264 233.685 269.343 227.412 269.365L220 269.374H214.996C214.997 267.353 214.999 265.251 214.999 263.063V255.624H220C230.906 255.624 237.616 255.605 242.645 255.194C247.37 254.808 248.448 254.199 248.459 254.193C250.774 253.013 252.683 251.175 253.95 248.915L254.194 248.458C254.203 248.442 254.81 247.358 255.195 242.644C255.606 237.615 255.625 230.905 255.625 219.999V214.999H263.062C265.25 214.999 267.353 214.997 269.375 214.996V219.999Z" fill="white" style="fill:white;fill-opacity:1;"/>
<path d="M85.0027 30.624C85.0021 32.6458 84.9998 34.7482 84.9998 36.9364V44.3742H79.9999C69.0942 44.3742 62.3846 44.393 57.355 44.8039C52.6079 45.1918 51.5412 45.805 51.5412 45.805L51.0843 46.0495C48.8243 47.3159 46.9858 49.2251 45.806 51.5402C45.806 51.5402 45.1928 52.6069 44.8049 57.354C44.394 62.3836 44.3751 69.0932 44.3751 79.999V84.9998H36.9364C34.7485 84.9998 32.6465 85.0011 30.625 85.0017V79.999C30.625 69.3255 30.633 61.9551 31.1003 56.2345C31.5574 50.6415 32.4007 47.5625 33.5547 45.2977C36.1313 40.2412 40.2431 36.1302 45.2996 33.5537C47.5644 32.3998 50.6428 31.5564 56.2355 31.0994C60.526 30.7488 65.7447 30.6569 72.5884 30.6328L79.9999 30.624H85.0027Z" fill="white" style="fill:white;fill-opacity:1;"/>
<path d="M220 30.624C230.674 30.624 238.044 30.632 243.765 31.0994C249.357 31.5563 252.437 32.3998 254.701 33.5537L255.172 33.8001C260.013 36.3884 263.949 40.3993 266.445 45.2977L266.658 45.7323C267.703 47.9571 268.471 50.9908 268.9 56.2345C269.367 61.9551 269.375 69.3255 269.375 79.999V85.0017C267.353 85.0011 265.25 84.9998 263.062 84.9998H255.625V79.999C255.625 69.0932 255.606 62.3836 255.195 57.354C254.807 52.607 254.194 51.5402 254.194 51.5402L253.95 51.0833C252.683 48.8234 250.774 46.9847 248.459 45.805L248.217 45.7032C247.694 45.5124 246.204 45.0947 242.645 44.8039C237.616 44.393 230.906 44.3742 220 44.3742H214.999V36.9364C214.999 34.7482 214.997 32.6458 214.996 30.624H220Z" fill="white" style="fill:white;fill-opacity:1;"/>
</g>
<path fill-rule="evenodd" clip-rule="evenodd" d="M150 64.999C196.944 64.999 235 103.055 235 149.999C235 196.943 196.944 234.999 150 234.999C103.056 234.999 65 196.943 65 149.999C65 103.055 103.056 64.999 150 64.999ZM150 86.249C114.792 86.249 86.25 114.791 86.25 149.999C86.25 185.207 114.792 213.749 150 213.749C185.208 213.749 213.75 185.207 213.75 149.999C213.75 114.791 185.208 86.249 150 86.249Z" fill="white" style="fill:white;fill-opacity:1;"/>
<path d="M192.5 149.999C192.5 173.471 173.472 192.499 150 192.499C126.528 192.499 107.5 173.471 107.5 149.999C107.5 126.527 126.528 107.499 150 107.499C173.472 107.499 192.5 126.527 192.5 149.999Z" fill="white" style="fill:white;fill-opacity:1;"/>
</svg>
